<mxfile host="app.diagrams.net" modified="2023-01-12T04:17:40.062Z" agent="5.0 (Windows NT 10.0; Win64; x64) AppleWebKit/537.36 (KHTML, like Gecko) Chrome/108.0.0.0 Safari/537.36 Edg/108.0.1462.54" version="20.8.1" etag="Xt5zptKne4l5wCKa0aRP" type="github">
  <diagram id="rXbX0RpggIG3IfS-PWig" name="Page-1">
    <mxGraphModel dx="1236" dy="818" grid="0" gridSize="10" guides="1" tooltips="1" connect="1" arrows="1" fold="1" page="0" pageScale="1" pageWidth="827" pageHeight="1169" math="0" shadow="0">
      <root>
        <mxCell id="0" />
        <mxCell id="1" parent="0" />
        <mxCell id="cKB5U1kXn6HKcrtO8T9M-33" value="&lt;blockquote style=&quot;margin: 0 0 0 40px; border: none; padding: 0px;&quot;&gt;&lt;br&gt;&lt;/blockquote&gt;" style="rounded=0;whiteSpace=wrap;html=1;align=left;" vertex="1" parent="1">
          <mxGeometry x="575" y="170" width="200" height="150" as="geometry" />
        </mxCell>
        <mxCell id="cKB5U1kXn6HKcrtO8T9M-1" value="&lt;blockquote style=&quot;margin: 0 0 0 40px; border: none; padding: 0px;&quot;&gt;&lt;/blockquote&gt;&lt;span style=&quot;background-color: initial;&quot;&gt;&amp;nbsp;module adder (count, sum, a, b, cin );&lt;/span&gt;&lt;br&gt;&lt;blockquote style=&quot;margin: 0 0 0 40px; border: none; padding: 0px;&quot;&gt;&lt;/blockquote&gt;&lt;span style=&quot;background-color: initial;&quot;&gt;&amp;nbsp; &amp;nbsp; &amp;nbsp;input [2:0] a,b;&amp;nbsp;&lt;/span&gt;&lt;br&gt;&lt;blockquote style=&quot;margin: 0 0 0 40px; border: none; padding: 0px;&quot;&gt;&lt;/blockquote&gt;&lt;span style=&quot;background-color: initial;&quot;&gt;&amp;nbsp; &amp;nbsp; &amp;nbsp;input&amp;nbsp; &amp;nbsp;cin;&amp;nbsp;&lt;/span&gt;&lt;br&gt;&lt;blockquote style=&quot;margin: 0 0 0 40px; border: none; padding: 0px;&quot;&gt;&lt;/blockquote&gt;&lt;span style=&quot;background-color: initial;&quot;&gt;&amp;nbsp; &amp;nbsp; &amp;nbsp;output&amp;nbsp; count;&amp;nbsp;&lt;/span&gt;&lt;br&gt;&lt;blockquote style=&quot;margin: 0 0 0 40px; border: none; padding: 0px;&quot;&gt;&lt;/blockquote&gt;&lt;span style=&quot;background-color: initial;&quot;&gt;&amp;nbsp; &amp;nbsp; &amp;nbsp;output [2:0] sum;&amp;nbsp;&lt;/span&gt;&lt;br&gt;&lt;blockquote style=&quot;margin: 0 0 0 40px; border: none; padding: 0px;&quot;&gt;&lt;/blockquote&gt;&lt;span style=&quot;background-color: initial;&quot;&gt;&amp;nbsp; &amp;nbsp;&amp;nbsp;&lt;/span&gt;&lt;br&gt;&lt;blockquote style=&quot;margin: 0 0 0 40px; border: none; padding: 0px;&quot;&gt;&lt;/blockquote&gt;&lt;span style=&quot;background-color: initial;&quot;&gt;&amp;nbsp; &amp;nbsp; &amp;nbsp;assign {count,sum} = a + b + cin;&amp;nbsp;&lt;/span&gt;&lt;br&gt;&lt;br&gt;&lt;blockquote style=&quot;margin: 0 0 0 40px; border: none; padding: 0px;&quot;&gt;&lt;br&gt;&lt;/blockquote&gt;&lt;span style=&quot;background-color: initial;&quot;&gt;&amp;nbsp;endmodule&lt;/span&gt;" style="rounded=0;whiteSpace=wrap;html=1;align=left;" vertex="1" parent="1">
          <mxGeometry x="80" y="170" width="230" height="150" as="geometry" />
        </mxCell>
        <mxCell id="cKB5U1kXn6HKcrtO8T9M-2" value="&lt;blockquote style=&quot;margin: 0 0 0 40px; border: none; padding: 0px;&quot;&gt;MODULE module_hd SEMICOLON&lt;br&gt;&amp;nbsp; &amp;nbsp; sig_set&lt;br&gt;&amp;nbsp; &amp;nbsp; module_body&amp;nbsp; &amp;nbsp;&lt;br&gt;ENDMODULE&amp;nbsp; &amp;nbsp; &amp;nbsp; &amp;nbsp; &amp;nbsp; &amp;nbsp; &amp;nbsp; &amp;nbsp; &amp;nbsp; &amp;nbsp; &amp;nbsp;&amp;nbsp;&lt;/blockquote&gt;&lt;blockquote style=&quot;margin: 0 0 0 40px; border: none; padding: 0px;&quot;&gt;&lt;br&gt;&lt;/blockquote&gt;" style="rounded=0;whiteSpace=wrap;html=1;align=left;" vertex="1" parent="1">
          <mxGeometry x="340" y="170" width="200" height="150" as="geometry" />
        </mxCell>
        <mxCell id="cKB5U1kXn6HKcrtO8T9M-7" value="tpSubProg" style="rounded=1;whiteSpace=wrap;html=1;" vertex="1" parent="1">
          <mxGeometry x="624" y="235" width="70" height="20" as="geometry" />
        </mxCell>
        <mxCell id="cKB5U1kXn6HKcrtO8T9M-12" style="edgeStyle=orthogonalEdgeStyle;rounded=0;orthogonalLoop=1;jettySize=auto;html=1;exitX=0.5;exitY=1;exitDx=0;exitDy=0;" edge="1" parent="1">
          <mxGeometry relative="1" as="geometry">
            <mxPoint x="775" y="255" as="sourcePoint" />
            <mxPoint x="775" y="255" as="targetPoint" />
          </mxGeometry>
        </mxCell>
        <mxCell id="cKB5U1kXn6HKcrtO8T9M-20" value="" style="endArrow=classic;html=1;rounded=0;" edge="1" parent="1">
          <mxGeometry width="50" height="50" relative="1" as="geometry">
            <mxPoint x="280" y="270" as="sourcePoint" />
            <mxPoint x="390" y="250" as="targetPoint" />
            <Array as="points">
              <mxPoint x="330" y="270" />
              <mxPoint x="330" y="250" />
            </Array>
          </mxGeometry>
        </mxCell>
        <mxCell id="cKB5U1kXn6HKcrtO8T9M-22" value="" style="endArrow=classic;html=1;rounded=0;" edge="1" parent="1">
          <mxGeometry width="50" height="50" relative="1" as="geometry">
            <mxPoint x="220" y="210" as="sourcePoint" />
            <mxPoint x="390" y="240" as="targetPoint" />
            <Array as="points">
              <mxPoint x="325" y="210" />
              <mxPoint x="325" y="240" />
            </Array>
          </mxGeometry>
        </mxCell>
        <mxCell id="cKB5U1kXn6HKcrtO8T9M-23" value="" style="strokeWidth=2;html=1;shape=mxgraph.flowchart.annotation_1;align=left;pointerEvents=1;rotation=-180;" vertex="1" parent="1">
          <mxGeometry x="195" y="190" width="10" height="50" as="geometry" />
        </mxCell>
        <mxCell id="cKB5U1kXn6HKcrtO8T9M-25" value="" style="endArrow=classic;html=1;rounded=0;" edge="1" parent="1">
          <mxGeometry x="-0.3064" y="98" width="50" height="50" relative="1" as="geometry">
            <mxPoint x="522" y="208" as="sourcePoint" />
            <mxPoint x="739" y="228" as="targetPoint" />
            <Array as="points">
              <mxPoint x="739" y="208" />
            </Array>
            <mxPoint as="offset" />
          </mxGeometry>
        </mxCell>
        <mxCell id="cKB5U1kXn6HKcrtO8T9M-35" value="Module" style="rounded=1;whiteSpace=wrap;html=1;" vertex="1" parent="1">
          <mxGeometry x="715" y="235" width="45" height="20" as="geometry" />
        </mxCell>
      </root>
    </mxGraphModel>
  </diagram>
</mxfile>
